<?xml version="1.0" encoding="UTF-8" standalone="no"?>
<!DOCTYPE svg PUBLIC "-//W3C//DTD SVG 1.1//EN" "http://www.w3.org/Graphics/SVG/1.1/DTD/svg11.dtd">
<svg version="1.1" xmlns="http://www.w3.org/2000/svg" xmlns:xlink="http://www.w3.org/1999/xlink" preserveAspectRatio="xMidYMid meet" viewBox="0 0 130 180" width="130" height="180"><defs><path d="M65.2 0.04L65.7 0.09L66.19 0.16L66.68 0.25L67.16 0.36L67.63 0.49L68.09 0.63L68.55 0.79L68.99 0.97L69.43 1.17L69.86 1.38L70.28 1.61L70.69 1.85L71.09 2.11L71.48 2.39L71.86 2.67L72.23 2.98L72.58 3.29L72.92 3.62L73.25 3.96L73.57 4.32L73.87 4.68L74.16 5.06L74.43 5.45L74.69 5.85L74.93 6.26L75.16 6.68L75.38 7.11L75.57 7.55L75.75 7.99L75.91 8.45L76.06 8.91L76.18 9.38L76.29 9.86L76.38 10.35L76.45 10.84L76.5 11.33L76.53 11.84L76.54 12.34L76.54 12.41L76.54 12.47L76.54 12.53L76.54 12.6L76.54 12.66L76.54 12.72L76.54 12.79L76.53 12.85L76.53 12.91L76.53 12.97L76.52 13.04L76.52 13.1L76.52 13.16L76.51 13.22L76.51 13.29L76.5 13.35L76.5 13.41L76.49 13.47L76.49 13.53L76.48 13.59L76.47 13.66L76.47 13.72L76.46 13.78L76.45 13.84L76.44 13.9L76.44 13.96L76.43 14.03L76.42 14.09L76.41 14.15L76.4 14.21L76.39 14.27L76.38 14.33L76.37 14.39L76.36 14.45L76.35 14.51L76.34 14.57L76.33 14.63L76.32 14.69L76.31 14.75L76.29 14.81L91.36 14.81L91.7 14.82L92.04 14.84L92.38 14.87L92.71 14.91L93.04 14.96L93.37 15.02L93.69 15.09L94.01 15.18L94.32 15.27L94.63 15.37L94.93 15.49L95.23 15.61L95.53 15.74L95.82 15.89L96.1 16.04L96.38 16.2L96.65 16.37L96.92 16.54L97.18 16.73L97.43 16.92L97.68 17.13L97.92 17.34L98.15 17.55L98.38 17.78L98.6 18.01L98.81 18.25L99.01 18.5L99.21 18.75L99.4 19.01L99.58 19.27L99.75 19.54L99.91 19.82L100.07 20.1L100.21 20.39L100.35 20.68L100.47 20.98L100.59 21.29L100.7 21.59L100.8 21.91L100.88 22.22L120.99 22.22L121.29 22.23L121.6 22.25L121.89 22.28L122.19 22.32L122.48 22.37L122.77 22.44L123.05 22.51L123.33 22.6L123.6 22.7L123.87 22.8L124.13 22.92L124.39 23.05L124.64 23.19L124.89 23.33L125.13 23.49L125.36 23.65L125.59 23.82L125.81 24.01L126.02 24.19L126.23 24.39L126.42 24.6L126.61 24.81L126.79 25.03L126.97 25.25L127.13 25.49L127.29 25.73L127.43 25.97L127.57 26.23L127.7 26.48L127.81 26.75L127.92 27.01L128.02 27.29L128.11 27.57L128.18 27.85L128.25 28.14L128.3 28.43L128.34 28.72L128.37 29.02L128.39 29.32L128.4 29.63L128.4 170.37L128.39 170.68L128.37 170.98L128.34 171.28L128.3 171.57L128.25 171.86L128.18 172.15L128.11 172.43L128.02 172.71L127.92 172.99L127.81 173.26L127.7 173.52L127.57 173.78L127.43 174.03L127.29 174.27L127.13 174.51L126.97 174.75L126.79 174.97L126.61 175.19L126.42 175.4L126.23 175.61L126.02 175.81L125.81 176L125.59 176.18L125.36 176.35L125.13 176.51L124.89 176.67L124.64 176.82L124.39 176.95L124.13 177.08L123.87 177.2L123.6 177.3L123.33 177.4L123.05 177.49L122.77 177.56L122.48 177.63L122.19 177.68L121.89 177.72L121.6 177.75L121.29 177.77L120.99 177.78L7.41 177.78L7.1 177.77L6.8 177.75L6.5 177.72L6.21 177.68L5.91 177.63L5.63 177.56L5.34 177.49L5.07 177.4L4.79 177.3L4.52 177.2L4.26 177.08L4 176.95L3.75 176.82L3.5 176.67L3.26 176.51L3.03 176.35L2.81 176.18L2.59 176L2.37 175.81L2.17 175.61L1.97 175.41L1.78 175.19L1.6 174.97L1.43 174.75L1.26 174.51L1.11 174.27L0.96 174.03L0.83 173.78L0.7 173.52L0.58 173.26L0.47 172.99L0.38 172.71L0.29 172.44L0.22 172.15L0.15 171.87L0.1 171.57L0.05 171.28L0.02 170.98L0.01 170.68L0 170.37L0 29.63L0.01 29.32L0.02 29.02L0.05 28.72L0.1 28.43L0.15 28.14L0.22 27.85L0.29 27.57L0.38 27.29L0.47 27.01L0.58 26.75L0.7 26.48L0.83 26.23L0.96 25.97L1.11 25.73L1.26 25.49L1.43 25.25L1.6 25.03L1.78 24.81L1.97 24.6L2.17 24.39L2.37 24.19L2.59 24.01L2.81 23.82L3.03 23.65L3.26 23.49L3.5 23.33L3.75 23.19L4 23.05L4.26 22.92L4.52 22.8L4.79 22.7L5.07 22.6L5.34 22.51L5.63 22.44L5.91 22.37L6.21 22.32L6.5 22.28L6.8 22.25L7.1 22.23L7.41 22.22L27.51 22.22L27.6 21.91L27.69 21.59L27.8 21.28L27.92 20.98L28.04 20.68L28.18 20.39L28.33 20.1L28.48 19.82L28.64 19.54L28.81 19.27L28.99 19L29.18 18.75L29.38 18.49L29.58 18.25L29.79 18.01L30.01 17.78L30.24 17.55L30.47 17.33L30.71 17.12L30.96 16.92L31.21 16.73L31.47 16.54L31.74 16.37L32.01 16.2L32.29 16.04L32.58 15.89L32.86 15.74L33.16 15.61L33.46 15.49L33.76 15.37L34.07 15.27L34.39 15.18L34.7 15.09L35.03 15.02L35.35 14.96L35.68 14.91L36.02 14.87L36.35 14.84L36.69 14.82L37.04 14.81L52.1 14.81L52.09 14.75L52.08 14.69L52.07 14.63L52.06 14.57L52.05 14.51L52.03 14.45L52.02 14.39L52.01 14.33L52 14.27L51.99 14.21L51.99 14.15L51.98 14.09L51.97 14.03L51.96 13.96L51.95 13.9L51.94 13.84L51.94 13.78L51.93 13.72L51.92 13.66L51.92 13.6L51.91 13.53L51.9 13.47L51.9 13.41L51.89 13.35L51.89 13.29L51.88 13.22L51.88 13.16L51.88 13.1L51.87 13.04L51.87 12.97L51.87 12.91L51.86 12.85L51.86 12.79L51.86 12.72L51.86 12.66L51.86 12.6L51.85 12.53L51.85 12.47L51.85 12.41L51.85 12.34L51.86 11.84L51.89 11.33L51.94 10.84L52.01 10.35L52.1 9.86L52.21 9.38L52.34 8.91L52.48 8.45L52.64 7.99L52.82 7.55L53.02 7.11L53.23 6.68L53.46 6.26L53.7 5.85L53.96 5.45L54.24 5.06L54.52 4.68L54.83 4.32L55.14 3.96L55.47 3.62L55.81 3.29L56.17 2.98L56.53 2.67L56.91 2.39L57.3 2.11L57.7 1.85L58.11 1.61L58.53 1.38L58.96 1.17L59.39 0.97L59.84 0.79L60.3 0.63L60.76 0.49L61.23 0.36L61.71 0.25L62.19 0.16L62.68 0.09L63.18 0.04L63.68 0.01L64.19 0L64.7 0.01L65.2 0.04ZM9.88 162.96L118.52 162.96L118.52 32.1L101.24 32.1L101.24 39.51L27.16 39.51L27.16 32.1L9.88 32.1L9.88 162.96ZM61.62 5.4L60.46 5.95L59.43 6.68L58.54 7.58L57.8 8.61L57.26 9.76L56.91 11.02L56.79 12.34L56.8 12.63L56.82 12.92L56.85 13.2L56.89 13.48L56.94 13.75L57.01 14.02L57.08 14.29L57.16 14.55L57.25 14.81L57.65 15.74L58.17 16.59L58.79 17.37L59.51 18.05L60.31 18.64L61.19 19.11L62.14 19.46L63.15 19.68L64.2 19.75L65.25 19.68L66.25 19.46L67.2 19.11L68.08 18.64L68.89 18.05L69.61 17.37L70.23 16.59L70.75 15.74L71.15 14.81L71.24 14.55L71.32 14.29L71.39 14.02L71.45 13.75L71.51 13.48L71.55 13.2L71.58 12.92L71.6 12.63L71.61 12.34L71.49 11.01L71.14 9.76L70.59 8.61L69.86 7.57L68.97 6.68L67.94 5.95L66.78 5.4L65.53 5.06L64.2 4.94L62.87 5.06L61.62 5.4Z" id="b1g6AVoWe5"></path><path d="M59.26 133.33C59.26 133.33 59.26 133.33 59.26 133.33C59.26 133.33 59.26 133.33 59.26 133.33C59.26 133.33 59.26 133.33 59.26 133.33C59.26 133.33 59.26 133.33 59.26 133.33C59.26 133.33 59.26 133.33 59.26 133.33C59.26 133.33 59.26 133.33 59.26 133.33C59.26 133.33 59.26 133.33 59.26 133.33C59.26 133.33 59.26 133.33 59.26 133.33Z" id="dUvVZSCGH"></path><path d="M59.26 118.52C59.26 118.52 59.26 118.52 59.26 118.52C59.26 118.52 59.26 118.52 59.26 118.52C59.26 118.52 59.26 118.52 59.26 118.52C59.26 118.52 59.26 118.52 59.26 118.52C59.26 118.52 59.26 118.52 59.26 118.52C59.26 118.52 59.26 118.52 59.26 118.52C59.26 118.52 59.26 118.52 59.26 118.52C59.26 118.52 59.26 118.52 59.26 118.52Z" id="aahl3pmCku"></path><path d="M19.75 148.15C19.75 148.15 19.75 148.15 19.75 148.15C19.75 148.15 19.75 148.15 19.75 148.15C19.75 148.15 19.75 148.15 19.75 148.15C19.75 148.15 19.75 148.15 19.75 148.15C19.75 148.15 19.75 148.15 19.75 148.15C19.75 148.15 19.75 148.15 19.75 148.15C19.75 148.15 19.75 148.15 19.75 148.15C19.75 148.15 19.75 148.15 19.75 148.15Z" id="e5Hievyldl"></path><path d="M91.22 80.17L80 68.95L85.86 63.08L91.22 68.63L102.8 56.87L108.66 62.73" id="a2JbrITizu"></path><path d="M67.02 140.03C67.02 140.03 67.02 140.03 67.02 140.03C67.02 142.31 67.02 143.57 67.02 143.82C67.02 143.82 67.02 143.82 67.02 143.82C36.94 143.82 20.23 143.82 16.89 143.82C16.89 143.82 16.89 143.82 16.89 143.82C16.89 141.55 16.89 140.28 16.89 140.03C16.89 140.03 16.89 140.03 16.89 140.03C46.97 140.03 63.68 140.03 67.02 140.03Z" id="i1t8vS5vYH"></path><path d="M67.02 133.63C67.02 133.63 67.02 133.63 67.02 133.63C67.02 135.9 67.02 137.16 67.02 137.42C67.02 137.42 67.02 137.42 67.02 137.42C36.94 137.42 20.23 137.42 16.89 137.42C16.89 137.42 16.89 137.42 16.89 137.42C16.89 135.14 16.89 133.88 16.89 133.63C16.89 133.63 16.89 133.63 16.89 133.63C46.97 133.63 63.68 133.63 67.02 133.63Z" id="ai9O2A6vX"></path><path d="M67.02 70.33C67.02 70.33 67.02 70.33 67.02 70.33C67.02 72.6 67.02 73.87 67.02 74.12C67.02 74.12 67.02 74.12 67.02 74.12C36.94 74.12 20.23 74.12 16.89 74.12C16.89 74.12 16.89 74.12 16.89 74.12C16.89 71.84 16.89 70.58 16.89 70.33C16.89 70.33 16.89 70.33 16.89 70.33C46.97 70.33 63.68 70.33 67.02 70.33Z" id="derpVaXWO"></path><path d="M67.02 63.92C67.02 63.92 67.02 63.92 67.02 63.92C67.02 66.19 67.02 67.46 67.02 67.71C67.02 67.71 67.02 67.71 67.02 67.71C36.94 67.71 20.23 67.71 16.89 67.71C16.89 67.71 16.89 67.71 16.89 67.71C16.89 65.44 16.89 64.17 16.89 63.92C16.89 63.92 16.89 63.92 16.89 63.92C46.97 63.92 63.68 63.92 67.02 63.92Z" id="nN3VkQ1Vu"></path><path d="M67.02 105.48C67.02 105.48 67.02 105.48 67.02 105.48C67.02 107.76 67.02 109.02 67.02 109.27C67.02 109.27 67.02 109.27 67.02 109.27C36.94 109.27 20.23 109.27 16.89 109.27C16.89 109.27 16.89 109.27 16.89 109.27C16.89 107 16.89 105.74 16.89 105.48C16.89 105.48 16.89 105.48 16.89 105.48C46.97 105.48 63.68 105.48 67.02 105.48Z" id="aiRmtZ66l"></path><path d="M67.02 99.08C67.02 99.08 67.02 99.08 67.02 99.08C67.02 101.35 67.02 102.61 67.02 102.87C67.02 102.87 67.02 102.87 67.02 102.87C36.94 102.87 20.23 102.87 16.89 102.87C16.89 102.87 16.89 102.87 16.89 102.87C16.89 100.59 16.89 99.33 16.89 99.08C16.89 99.08 16.89 99.08 16.89 99.08C46.97 99.08 63.68 99.08 67.02 99.08Z" id="aBFJi6lyR"></path><path d="M91.22 113.43L80 102.21L85.86 96.35L91.22 101.9L102.8 90.14L108.66 96" id="fcm0fB5lS"></path><path d="M91.22 147.61L80 136.39L85.86 130.52L91.22 136.07L102.8 124.31L108.66 130.17" id="dgTI7CbT0"></path></defs><g><g><g><use xlink:href="#b1g6AVoWe5" opacity="1" fill="#435090" fill-opacity="1"></use><g><use xlink:href="#b1g6AVoWe5" opacity="1" fill-opacity="0" stroke="#000000" stroke-width="1" stroke-opacity="0"></use></g></g><g><use xlink:href="#dUvVZSCGH" opacity="1" fill="#a0d58a" fill-opacity="1"></use><g><use xlink:href="#dUvVZSCGH" opacity="1" fill-opacity="0" stroke="#000000" stroke-width="1" stroke-opacity="0"></use></g></g><g><use xlink:href="#aahl3pmCku" opacity="1" fill="#a0d58a" fill-opacity="1"></use><g><use xlink:href="#aahl3pmCku" opacity="1" fill-opacity="0" stroke="#000000" stroke-width="1" stroke-opacity="0"></use></g></g><g><use xlink:href="#e5Hievyldl" opacity="1" fill="#a0d58a" fill-opacity="1"></use><g><use xlink:href="#e5Hievyldl" opacity="1" fill-opacity="0" stroke="#000000" stroke-width="1" stroke-opacity="0"></use></g></g><g><use xlink:href="#a2JbrITizu" opacity="1" fill="#ffffff" fill-opacity="1"></use><g><use xlink:href="#a2JbrITizu" opacity="1" fill-opacity="0" stroke="#000000" stroke-width="0" stroke-opacity="1"></use></g></g><g><use xlink:href="#i1t8vS5vYH" opacity="1" fill="#ffffff" fill-opacity="1"></use><g><use xlink:href="#i1t8vS5vYH" opacity="1" fill-opacity="0" stroke="#000000" stroke-width="NaN" stroke-opacity="0"></use></g></g><g><use xlink:href="#ai9O2A6vX" opacity="1" fill="#ffffff" fill-opacity="1"></use><g><use xlink:href="#ai9O2A6vX" opacity="1" fill-opacity="0" stroke="#000000" stroke-width="NaN" stroke-opacity="0"></use></g></g><g><use xlink:href="#derpVaXWO" opacity="1" fill="#ffffff" fill-opacity="1"></use><g><use xlink:href="#derpVaXWO" opacity="1" fill-opacity="0" stroke="#000000" stroke-width="NaN" stroke-opacity="0"></use></g></g><g><use xlink:href="#nN3VkQ1Vu" opacity="1" fill="#ffffff" fill-opacity="1"></use><g><use xlink:href="#nN3VkQ1Vu" opacity="1" fill-opacity="0" stroke="#000000" stroke-width="NaN" stroke-opacity="0"></use></g></g><g><use xlink:href="#aiRmtZ66l" opacity="1" fill="#ffffff" fill-opacity="1"></use><g><use xlink:href="#aiRmtZ66l" opacity="1" fill-opacity="0" stroke="#000000" stroke-width="NaN" stroke-opacity="0"></use></g></g><g><use xlink:href="#aBFJi6lyR" opacity="1" fill="#ffffff" fill-opacity="1"></use><g><use xlink:href="#aBFJi6lyR" opacity="1" fill-opacity="0" stroke="#000000" stroke-width="NaN" stroke-opacity="0"></use></g></g><g><use xlink:href="#fcm0fB5lS" opacity="1" fill="#ffffff" fill-opacity="1"></use><g><use xlink:href="#fcm0fB5lS" opacity="1" fill-opacity="0" stroke="#000000" stroke-width="0" stroke-opacity="0"></use></g></g><g><use xlink:href="#dgTI7CbT0" opacity="1" fill="#ffffff" fill-opacity="1"></use><g><use xlink:href="#dgTI7CbT0" opacity="1" fill-opacity="0" stroke="#dddddd" stroke-width="0" stroke-opacity="1"></use></g></g></g></g></svg>